<svg xmlns="http://www.w3.org/2000/svg" width="118" height="119" viewBox="0 0 118 119" fill="none">
  <g clip-path="url(#clip0_696_17486)">
    <path d="M98.6289 19.0578H19.3708V0H98.6289V19.0578ZM23.145 15.2462H94.8547V3.81156H23.145V15.2462Z" fill="#FFAC2A"/>
    <path d="M30.6935 7.62305H26.9193V11.4346H30.6935V7.62305Z" fill="#FFAC2A"/>
    <path d="M38.2419 7.62305H34.4677V11.4346H38.2419V7.62305Z" fill="#FFAC2A"/>
    <path d="M45.7903 7.62305H42.0161V11.4346H45.7903V7.62305Z" fill="#FFAC2A"/>
    <path d="M89.1935 45.7385C89.1935 39.4227 84.1247 34.3038 77.8709 34.3038C77.8086 34.3038 77.7501 34.3152 77.6897 34.3152L77.7143 34.3019C76.8141 28.8952 72.1586 24.7749 66.5483 24.7749C63.1949 24.7749 60.1831 26.2462 58.1092 28.5865L57.9639 28.7713C56.1202 27.4582 53.8784 26.6807 51.4515 26.6807C46.5225 26.6807 42.3274 29.8633 40.7725 34.3038L40.8725 34.3515C40.6253 34.3343 40.38 34.3038 40.129 34.3038C33.8751 34.3038 28.8064 39.4227 28.8064 45.7385C28.8064 50.7145 31.9541 54.9491 36.3491 56.5214L36.3906 56.4985C36.3548 57.0264 36.3472 57.562 36.3982 58.1089C36.8662 63.064 41.2669 66.7021 46.1941 66.7021H51.2213C53.784 66.7021 56.2429 67.7312 58.0545 69.5608C59.8661 71.3903 60.8851 73.8735 60.8851 76.4616V80.0426H74.0948V73.8316C74.0948 72.0745 75.2969 70.5861 76.9802 70.1382C82.5716 68.6555 86.4742 62.9629 85.1645 56.6167C85.0419 56.0183 84.8569 55.4408 84.6399 54.8767C87.397 52.7937 89.1935 49.4853 89.1935 45.7385ZM68.5977 39.1998C68.5467 39.2741 68.4845 39.3408 68.4354 39.417L68.2656 39.3789L68.5977 39.1998ZM50.057 38.7919L49.5645 39.417C49.2361 38.9196 48.8587 38.4603 48.4586 38.0201L50.057 38.7919Z" fill="#FFAC2A"/>
    <path d="M0.5 97.1949C0.5 102.449 4.73276 106.724 9.93548 106.724H32.5806V114.347H25.0323V118.158H92.9677V114.347H85.4194V106.724H108.065C113.267 106.724 117.5 102.449 117.5 97.1949V91.4775H0.5V97.1949ZM81.6452 114.347H36.3548V106.724H81.6452V114.347ZM4.27419 95.2891H113.726V97.1949C113.726 100.347 111.186 102.912 108.065 102.912H9.93548C6.81423 102.912 4.27419 100.347 4.27419 97.1949V95.2891Z" fill="#FFFCF6"/>
    <path d="M4.27419 28.5865C4.27419 25.4344 6.81423 22.8692 9.93548 22.8692H15.5968V19.0576H9.93548C4.73276 19.0576 0.5 23.3323 0.5 28.5865V87.6657H4.27419V28.5865Z" fill="#FFFCF6"/>
    <path d="M108.064 19.0576H102.403V22.8692H108.064C111.186 22.8692 113.726 25.4344 113.726 28.5865V87.6657H117.5V28.5865C117.5 23.3323 113.267 19.0576 108.064 19.0576Z" fill="#FFFCF6"/>
    <path d="M98.6289 22.8691H94.8547V83.8541H23.145V22.8691H19.3708V87.6657H98.6289V22.8691Z" fill="#FFFCF6"/>
    <path d="M34.498 57.7659C34.5075 57.9412 34.5037 58.1147 34.5207 58.29C35.066 64.0759 40.1952 68.6079 46.1961 68.6079H51.2234C53.269 68.6079 55.2731 69.4464 56.7223 70.9082C58.1905 72.3909 59.0001 74.3633 59.0001 76.4616V80.0426H62.7743V76.4616C62.7743 73.3437 61.5722 70.4146 59.3907 68.2134C57.2073 66.0103 54.3069 64.7963 51.2234 64.7963H46.1961C42.12 64.7963 38.6421 61.7795 38.2779 57.9279C38.0722 55.7439 38.7553 53.6551 40.2046 52.0466C41.6312 50.461 43.6674 49.5501 45.7904 49.5501V45.7385C42.6069 45.7385 39.5535 47.1031 37.4117 49.4834C36.3077 50.7088 35.5001 52.1572 35.0113 53.7123C32.375 51.9818 30.6936 49.0088 30.6936 45.7385C30.6936 40.4843 34.9264 36.2096 40.1291 36.2096C43.2975 36.2096 46.2376 37.8028 47.9926 40.4709L51.1365 38.3612C49.3381 35.6302 46.649 33.7149 43.5995 32.8783C45.3205 30.254 48.2417 28.5865 51.4517 28.5865C56.6544 28.5865 60.8872 32.8611 60.8872 38.1154H64.6614C64.6614 34.4353 63.1781 31.0983 60.7815 28.6818C62.4233 27.4011 64.4462 26.6807 66.5485 26.6807C70.4906 26.6807 73.8949 29.1163 75.2952 32.6782C71.8795 33.3624 68.8337 35.3653 66.8617 38.3612L70.0056 40.4709C71.7625 37.8028 74.7026 36.2096 77.871 36.2096C83.0738 36.2096 87.3065 40.4843 87.3065 45.7385C87.3065 47.9816 86.5158 50.1027 85.142 51.7875C83.2663 48.904 80.3243 46.7543 76.9181 46.0358C72.9325 45.1935 68.8715 46.1749 65.7691 48.7211C62.6667 51.2691 60.8872 55.0444 60.8872 59.079H64.6614C64.6614 56.1974 65.9333 53.5008 68.1506 51.6807C70.3661 49.8588 73.2816 49.1651 76.1481 49.7654C79.6959 50.5144 82.5775 53.4226 83.3172 57.0074C84.357 62.0482 81.3641 67.0051 76.5029 68.2972C73.9761 68.9662 72.2098 71.2436 72.2098 73.8316V80.0426H75.9839V73.8316C75.9839 72.9607 76.5765 72.2155 77.4615 71.9811C84.2683 70.1763 88.4633 63.2564 87.014 56.2279C86.965 55.9897 86.8763 55.7648 86.814 55.5304C89.505 53.0262 91.0807 49.5043 91.0807 45.7385C91.0807 38.8434 85.8742 33.1527 79.2222 32.4667C77.6031 26.8255 72.5023 22.8691 66.5485 22.8691C63.2498 22.8691 60.0776 24.1231 57.6583 26.3472C55.8071 25.3467 53.6936 24.7749 51.4517 24.7749C46.3169 24.7749 41.7048 27.8108 39.5403 32.4285C32.5298 32.743 26.9194 38.5842 26.9194 45.7385C26.9194 50.9241 29.9275 55.58 34.498 57.7659Z" fill="#FFFCF6"/>
  </g>
  <defs>
    <clipPath id="clip0_696_17486">
      <rect width="117" height="118.158" fill="white" transform="translate(0.5)"/>
    </clipPath>
  </defs>
</svg>