<svg xmlns="http://www.w3.org/2000/svg" width="17" height="17" viewBox="0 0 17 17" fill="none">
  <g clip-path="url(#clip0_26_2339)">
    <path d="M1.9071 5.13879C2.39148 4.12942 3.07585 3.27629 3.93835 2.56692C5.10711 1.60129 6.44773 1.02004 7.95086 0.841917C9.71648 0.632543 11.3759 0.966917 12.9102 1.88567C13.2915 2.11379 13.6477 2.37317 13.9884 2.65442C14.0727 2.72317 14.0634 2.76379 13.9915 2.83254C13.2946 3.52629 12.5977 4.22004 11.9071 4.92004C11.8259 5.00129 11.7821 4.99504 11.6946 4.92942C9.66961 3.37004 6.71648 3.79192 5.20711 5.85442C4.94148 6.21692 4.72586 6.60754 4.57586 7.03254C4.56336 7.07004 4.53836 7.10442 4.51961 7.14192C4.11648 6.83567 3.71023 6.52942 3.31023 6.22004C2.84148 5.86067 2.37273 5.50129 1.9071 5.13879Z" fill="#E94335"/>
    <path d="M4.5198 10.0728C4.65417 10.3696 4.76667 10.679 4.93542 10.9571C5.6448 12.1196 6.6573 12.8665 7.99167 13.1321C9.1948 13.3728 10.351 13.2103 11.4292 12.6071C11.4667 12.5884 11.5042 12.5696 11.5385 12.5509C11.5573 12.5696 11.5729 12.5915 11.5917 12.6071C12.3979 13.2321 13.2073 13.8571 14.0135 14.4821C13.626 14.8665 13.1854 15.1759 12.7167 15.4446C11.3573 16.2196 9.88542 16.5321 8.33542 16.4134C6.40417 16.2634 4.73855 15.5009 3.36355 14.1259C2.76042 13.5228 2.26355 12.8415 1.90417 12.0634C2.23855 11.8071 2.57292 11.554 2.9073 11.2978C3.4448 10.8884 3.9823 10.4821 4.5198 10.0728Z" fill="#34A853"/>
    <path d="M14.0163 14.4827C13.2101 13.8577 12.4007 13.2327 11.5944 12.6077C11.5757 12.5921 11.5569 12.5702 11.5413 12.5515C11.8194 12.3358 12.1038 12.1265 12.3319 11.8515C12.7132 11.3952 12.9663 10.8796 13.0976 10.3015C13.1132 10.2296 13.1007 10.2046 13.0288 10.2077C12.9913 10.2108 12.9569 10.2077 12.9194 10.2077C11.6444 10.2077 10.3663 10.2046 9.09132 10.2108C8.95069 10.2108 8.91944 10.1733 8.92257 10.039C8.92882 9.13272 8.92882 8.22646 8.92257 7.32021C8.92257 7.20459 8.95382 7.17334 9.06945 7.17334C11.4069 7.17646 13.7444 7.17646 16.0851 7.17334C16.1851 7.17334 16.2257 7.19834 16.2507 7.30459C16.4413 8.16396 16.4288 9.02647 16.3132 9.89522C16.2194 10.589 16.0507 11.2608 15.7913 11.9108C15.4069 12.8702 14.8413 13.7077 14.0976 14.4265C14.0694 14.4483 14.0413 14.464 14.0163 14.4827Z" fill="#4285F3"/>
    <path d="M4.51969 10.0733C3.98219 10.4827 3.44469 10.889 2.90719 11.2983C2.57282 11.5515 2.23844 11.8077 1.90406 12.064C1.64469 11.5827 1.47594 11.0733 1.33844 10.5483C1.07594 9.53272 1.03532 8.50147 1.17907 7.46709C1.29157 6.65459 1.52594 5.87334 1.90406 5.14209C2.37281 5.50146 2.83844 5.86397 3.30719 6.22334C3.71031 6.53272 4.11344 6.83897 4.51656 7.14522C4.44781 7.47959 4.35094 7.80772 4.31969 8.15147C4.26344 8.77647 4.32281 9.38584 4.50094 9.98584C4.51344 10.0108 4.51656 10.0421 4.51969 10.0733Z" fill="#FABB06"/>
  </g>
  <defs>
    <clipPath id="clip0_26_2339">
      <rect width="16" height="16" fill="white" transform="translate(0.581482 0.57959)"/>
    </clipPath>
  </defs>
</svg>