<svg width="16" height="16" viewBox="0 0 16 16" fill="none" xmlns="http://www.w3.org/2000/svg">
<path d="M12 5.66667H11.3334V4.33333C11.3334 2.49333 9.84002 1 8.00002 1C6.16002 1 4.66669 2.49333 4.66669 4.33333V5.66667H4.00002C3.26669 5.66667 2.66669 6.26667 2.66669 7V13.6667C2.66669 14.4 3.26669 15 4.00002 15H12C12.7334 15 13.3334 14.4 13.3334 13.6667V7C13.3334 6.26667 12.7334 5.66667 12 5.66667ZM6.00002 4.33333C6.00002 3.22667 6.89335 2.33333 8.00002 2.33333C9.10669 2.33333 10 3.22667 10 4.33333V5.66667H6.00002V4.33333ZM12 13.6667H4.00002V7H12V13.6667ZM8.00002 11.6667C8.73335 11.6667 9.33335 11.0667 9.33335 10.3333C9.33335 9.6 8.73335 9 8.00002 9C7.26669 9 6.66669 9.6 6.66669 10.3333C6.66669 11.0667 7.26669 11.6667 8.00002 11.6667Z" fill="white"/>
</svg>
