<svg xmlns="http://www.w3.org/2000/svg" width="160" height="48" viewBox="0 0 160 48" fill="none">
  <path fill-rule="evenodd" clip-rule="evenodd" d="M27.0779 1.44954C32.5191 1.44954 37.437 3.66649 41.0043 7.25328C44.5697 10.8401 46.7716 15.7893 46.7735 21.2631C46.7735 26.7368 44.5697 31.6842 41.0043 35.2728C37.4388 38.8596 32.5191 41.0747 27.0779 41.0766C26.6799 41.0766 26.3574 41.401 26.3574 41.8013C26.3574 42.2017 26.6799 42.5261 27.0779 42.5261C32.9116 42.5261 38.198 40.1461 42.0214 36.2998L42.022 36.2997L42.0226 36.2994L42.023 36.2988L42.0232 36.2979C45.8467 32.4535 48.2126 27.1335 48.2126 21.2649V21.2631C48.2126 15.3944 45.8467 10.0745 42.0232 6.23007C38.1998 2.38192 32.9116 0 27.0779 0C26.6799 0 26.3574 0.324386 26.3574 0.724772C26.3574 1.12516 26.6799 1.44954 27.0779 1.44954ZM27.0758 4.18734C22.3882 4.18919 18.1502 6.09658 15.0768 9.18845C14.7967 9.47205 14.3397 9.47205 14.0578 9.18845C13.7759 8.90484 13.7759 8.44699 14.0578 8.16339C17.3874 4.81201 21.9939 2.73779 27.0758 2.73779H27.0777C32.1596 2.73779 36.7679 4.81201 40.0975 8.16339C43.4289 11.5129 45.4908 16.1488 45.4908 21.2612V21.263C45.4908 26.3754 43.4271 31.0095 40.0975 34.359C39.8156 34.6426 39.3605 34.6426 39.0785 34.359C38.7966 34.0754 38.7966 33.6175 39.0785 33.3339C42.152 30.242 44.0499 25.9787 44.0499 21.2612C44.0499 16.5437 42.1502 12.2803 39.0785 9.18845C36.0051 6.09658 31.7671 4.18734 27.0777 4.18734H27.0758ZM12.1083 21.986C12.5063 21.986 12.8287 21.6616 12.8287 21.2613C12.8287 17.3019 14.4226 13.7225 17.0004 11.1256C17.0004 11.1256 17.0022 11.1256 17.0022 11.1237C19.5837 8.52862 23.1399 6.92523 27.0776 6.92523H27.0794C31.0171 6.92523 34.5751 8.52862 37.1566 11.1237C39.7363 13.7207 41.3301 17.3 41.3301 21.2613C41.3301 21.6616 41.6526 21.986 42.0506 21.986C42.4486 21.986 42.7711 21.6616 42.7711 21.2613C42.7711 16.9052 41.0132 12.9533 38.1756 10.1005C35.338 7.24591 31.4114 5.47754 27.0813 5.47754H27.0794C22.7493 5.47754 18.8227 7.24591 15.9851 10.1005C13.1475 12.9551 11.3897 16.9052 11.3897 21.2613C11.3878 21.6616 11.7103 21.986 12.1083 21.986ZM36.2484 12.0357C36.5303 12.3193 36.5303 12.7771 36.2484 13.0607C35.9665 13.3443 35.5114 13.3443 35.2313 13.0607C33.1436 10.9606 30.2655 9.66302 27.0796 9.66302H27.0778C23.8938 9.66488 21.0156 10.9606 18.9279 13.0607C18.9279 13.0626 18.9261 13.0626 18.9261 13.0626C16.8384 15.1628 15.5504 18.0563 15.5504 21.2612V21.2631C15.5504 24.468 16.8403 27.3615 18.9261 29.4617C19.208 29.7453 19.208 30.2032 18.9261 30.4868C18.6442 30.7704 18.189 30.7704 17.9071 30.4868C15.5633 28.1289 14.1095 24.8647 14.1095 21.2649V21.2612C14.1095 17.6615 15.5615 14.3954 17.9071 12.0357C20.2509 9.676 23.4976 8.21533 27.0759 8.21533H27.0778C30.6561 8.21348 33.9028 9.676 36.2484 12.0357ZM27.0778 31.5691C27.4758 31.5691 27.7983 31.2447 27.7983 30.8443C27.7983 30.4439 27.4758 30.1195 27.0778 30.1195C24.6437 30.1195 22.4473 29.1297 20.8516 27.5244C19.2578 25.9192 18.272 23.7097 18.272 21.261V21.2591C18.272 18.8105 19.256 16.601 20.8498 14.9957C20.8498 14.9957 20.8516 14.9957 20.8516 14.9939C22.4473 13.3886 24.6437 12.3988 27.0778 12.3988C27.4758 12.3988 27.7983 12.0744 27.7983 11.674C27.7983 11.2736 27.4758 10.9492 27.0778 10.9492C24.2513 10.9492 21.6845 12.104 19.8327 13.9688C17.979 15.8354 16.8311 18.4175 16.8311 21.261C16.8311 24.1045 17.979 26.6866 19.8327 28.5495C21.6845 30.4143 24.2513 31.5691 27.0778 31.5691ZM19.5544 21.2614C19.5544 19.1723 20.3964 17.2761 21.7581 15.9081C22.0382 15.6263 22.4952 15.6263 22.7752 15.9081C23.0572 16.1917 23.0572 16.6495 22.7752 16.9332C21.6734 18.0435 20.9934 19.569 20.9934 21.2614V21.2632C20.9934 22.9556 21.6734 24.4793 22.7752 25.5896C23.879 26.6981 25.3954 27.3821 27.0777 27.3821C28.76 27.3821 30.2765 26.6981 31.3802 25.5896C31.6621 25.306 32.1172 25.306 32.3992 25.5896C32.6811 25.8732 32.6811 26.3311 32.3992 26.6147C31.0393 27.9827 29.1525 28.8316 27.0777 28.8316H27.0759C25.0011 28.8316 23.1161 27.9827 21.7581 26.6147C20.3983 25.2467 19.5544 23.3486 19.5544 21.2614ZM23.6818 24.6776C22.814 23.8064 22.2759 22.5942 22.2759 21.2614C22.2759 20.861 22.5984 20.5366 22.9945 20.5385C23.3926 20.5385 23.715 20.8629 23.715 21.2632C23.715 22.1993 24.0909 23.039 24.7008 23.6544C25.3125 24.2661 26.1472 24.6443 27.0778 24.6443C28.0083 24.6424 28.8448 24.2661 29.4547 23.6526C30.0628 23.039 30.4387 22.1975 30.4387 21.2614C30.4387 20.861 30.7611 20.5366 31.1591 20.5366C31.5571 20.5366 31.8796 20.861 31.8796 21.2614C31.8796 22.5923 31.3415 23.8046 30.4737 24.6776L30.4718 24.6795C29.6058 25.5507 28.4008 26.092 27.0778 26.092H27.0759C25.7529 26.092 24.5479 25.5507 23.6818 24.6776ZM27.076 45.2604C20.4924 45.2604 14.5224 42.5726 10.2088 38.2314C9.92876 37.9478 9.92876 37.4899 10.207 37.2063C10.4889 36.9227 10.944 36.9227 11.226 37.2063C15.2852 41.288 20.8849 43.8108 27.076 43.8108H27.0779C33.269 43.8108 38.8687 41.288 42.928 37.2063C46.9854 33.1228 49.4932 27.4914 49.4932 21.2614C49.4932 15.0331 46.9854 9.39994 42.928 5.31638C42.646 5.03277 42.646 4.57492 42.928 4.29132C43.2099 4.00771 43.665 4.00771 43.9469 4.29132C48.2623 8.63253 50.9341 14.6365 50.9341 21.2614V21.2632C50.9341 27.8863 48.2623 33.8902 43.9469 38.2314C43.9469 38.2322 43.9465 38.2327 43.9461 38.2329L43.9454 38.2332L43.9451 38.2333C39.6315 42.5745 33.6633 45.2604 27.0779 45.2604H27.076ZM53.6573 21.2612C53.6573 20.8609 53.3348 20.5365 52.9368 20.5365C52.5388 20.5365 52.2164 20.8609 52.2164 21.2612C52.2164 28.2476 49.4046 34.5648 44.8533 39.1433L44.8515 39.1451C40.3003 43.7218 34.0207 46.5504 27.0777 46.5504C20.1348 46.5504 13.8552 43.7218 9.30396 39.1451C4.75273 34.5666 1.94092 28.2494 1.94092 21.2631C1.94092 20.8627 1.61846 20.5383 1.22046 20.5383C0.822456 20.5383 0.5 20.8627 0.5 21.2631C0.5 28.6443 3.47581 35.3322 8.285 40.1702C13.0924 45.0063 19.7405 47.9999 27.0759 47.9999H27.0777C34.415 47.9999 41.0631 45.0063 45.8704 40.1702C45.8704 40.1702 45.871 40.1702 45.8714 40.1699C45.8719 40.1697 45.8723 40.1692 45.8723 40.1683C50.6815 35.3303 53.6573 28.6424 53.6573 21.2612ZM113.9 30.5421V14.8383H108.859V16.4788C107.655 14.9915 105.93 14.2461 103.683 14.2461C102.384 14.2461 101.183 14.4911 100.083 14.9778C98.9837 15.4645 98.0296 16.135 97.2278 16.9927C96.4226 17.847 95.7899 18.8647 95.3298 20.0423C94.8697 21.2199 94.6396 22.4996 94.6396 23.878C94.6396 25.1884 94.8629 26.4136 95.3129 27.5538C95.7629 28.694 96.3718 29.6912 97.1398 30.5489C97.9078 31.4032 98.8179 32.0771 99.8701 32.5638C100.922 33.0505 102.052 33.2955 103.257 33.2955C103.825 33.2955 104.387 33.2309 104.942 33.1015C105.496 32.9722 106.011 32.7952 106.484 32.5706C106.958 32.3494 107.371 32.0771 107.726 31.7571C108.081 31.4372 108.352 31.1003 108.541 30.7463V31.3147C108.541 32.8293 108.169 34.0103 107.425 34.8509C106.681 35.6916 105.622 36.1136 104.251 36.1136C102.665 36.1136 101.626 35.5282 101.129 34.3642H94.9949C95.1133 35.3172 95.4144 36.1783 95.8982 36.9509C96.382 37.7235 97.0147 38.3838 97.7962 38.9318C98.5777 39.4763 99.481 39.8984 100.51 40.1979C101.541 40.494 102.658 40.6437 103.862 40.6437C105.639 40.6437 107.246 40.3476 108.687 39.752C110.132 39.1564 111.35 38.2851 112.341 37.1449C112.672 36.7637 112.936 36.3893 113.139 36.0217C113.339 35.6508 113.498 35.2287 113.616 34.7522C113.735 34.2792 113.813 33.7074 113.846 33.0403C113.884 32.3766 113.9 31.5427 113.9 30.5421ZM102.553 19.5454C103.071 19.3207 103.639 19.205 104.255 19.205C105.534 19.205 106.566 19.6373 107.351 20.4983C108.142 21.3628 108.538 22.4758 108.538 23.844C108.538 25.1645 108.135 26.2401 107.334 27.0807C106.532 27.9214 105.49 28.34 104.214 28.34C102.962 28.34 101.931 27.901 101.129 27.0263C100.327 26.1516 99.9243 25.042 99.9243 23.701C99.9243 23.0748 100.039 22.4894 100.263 21.938C100.489 21.3867 100.797 20.9068 101.186 20.4983C101.579 20.0899 102.032 19.7734 102.553 19.5454ZM92.5523 19.9908C92.0685 18.8268 91.3987 17.816 90.5495 16.9583C89.6969 16.1006 88.6887 15.4369 87.5181 14.9604C86.3475 14.4839 85.0753 14.2457 83.7051 14.2457C82.3112 14.2457 81.029 14.4908 79.8584 14.9775C78.6878 15.4642 77.6762 16.138 76.827 16.9923C75.9744 17.85 75.3147 18.8643 74.841 20.0419C74.3674 21.2195 74.1305 22.4992 74.1305 23.8776C74.1305 25.011 74.3031 26.0729 74.6414 27.0633C74.1373 28.1967 73.1054 28.7651 71.5457 28.7651C70.1755 28.7651 69.1165 28.343 68.3722 27.5024C67.6279 26.6617 67.2558 25.4807 67.2558 23.9661V7.48633H61.8967V23.1935C61.8967 24.1942 61.9136 25.028 61.9508 25.6917C61.9846 26.3588 62.0625 26.9306 62.1809 27.4037C62.2993 27.8802 62.4583 28.3022 62.6579 28.6732C62.8609 29.0408 63.1248 29.4151 63.4564 29.7963C64.4477 30.9365 65.6656 31.8078 67.1103 32.4034C68.5515 32.999 70.1586 33.2951 71.9348 33.2951C73.1392 33.2951 74.2557 33.1454 75.2876 32.8493C76.3161 32.5498 77.2194 32.1277 78.001 31.5832L78.0027 31.5822L78.0043 31.5811C78.0061 31.5797 78.0077 31.5781 78.0093 31.5765C78.0119 31.5739 78.0145 31.5713 78.0179 31.5696C78.5897 31.9678 79.2156 32.3047 79.8956 32.5838C81.0662 33.0603 82.3484 33.2985 83.7423 33.2985C85.1126 33.2985 86.3779 33.0603 87.5384 32.5838C88.6954 32.1073 89.7003 31.4436 90.5528 30.5859C91.4054 29.7283 92.0719 28.7208 92.5557 27.5534C93.0395 26.3894 93.2831 25.1267 93.2831 23.7721C93.2797 22.4141 93.0361 21.1548 92.5523 19.9908ZM87.6737 25.5692C87.4572 26.1205 87.1594 26.6072 86.7805 27.0259C86.3982 27.4445 85.9448 27.7678 85.4204 27.9959C84.896 28.2239 84.3344 28.3362 83.739 28.3362C83.1198 28.3362 82.5481 28.2239 82.0237 27.9959C81.4993 27.7678 81.0391 27.4445 80.6467 27.0259C80.2542 26.6072 79.9497 26.1137 79.7366 25.5522C79.5201 24.9906 79.4152 24.3848 79.4152 23.7347C79.4152 23.1118 79.5268 22.523 79.7535 21.9717C79.9802 21.4203 80.2847 20.9404 80.6636 20.532C81.0459 20.1236 81.4993 19.8002 82.0237 19.562C82.5481 19.3237 83.1198 19.2012 83.739 19.2012C84.3344 19.2012 84.8893 19.3203 85.4001 19.562C85.9144 19.8002 86.361 20.127 86.7399 20.532C87.1222 20.9404 87.4267 21.4203 87.6534 21.9717C87.8801 22.523 87.9917 23.122 87.9917 23.7687C87.9951 24.4188 87.8902 25.0178 87.6737 25.5692ZM88.9156 8.89551V9.76681L84.6256 12.9593H83.631V8.89551H88.9156ZM122.024 8.89551H116.739V12.9627H122.024V8.89551ZM116.739 14.8516H122.024V32.6894H116.739V14.8516ZM124.896 32.6894V8.89209H130.181V21.3081L135.181 14.8516H141.457L134.755 22.6661L141.281 32.6894H135.252L130.181 24.0922V32.6894H124.896ZM159.5 32.6657V14.8483H154.54V16.7339C154.043 15.8558 153.359 15.2159 152.483 14.8109C151.61 14.4059 150.497 14.2051 149.151 14.2051C147.804 14.2051 146.573 14.4365 145.463 14.8994C144.353 15.3623 143.396 16.0157 142.591 16.8564C141.785 17.6971 141.159 18.7079 140.709 19.8821C140.259 21.0563 140.036 22.3463 140.036 23.7451C140.036 25.1678 140.256 26.4611 140.693 27.6251C141.129 28.7891 141.745 29.7863 142.536 30.6168C143.328 31.4472 144.275 32.0939 145.375 32.5568C146.475 33.0197 147.699 33.2511 149.046 33.2511C151.861 33.2511 153.691 32.4173 154.544 30.7427V32.6657H159.5ZM147.983 19.5656C148.532 19.3376 149.113 19.2253 149.733 19.2253C150.375 19.2253 150.974 19.341 151.532 19.5656C152.091 19.7902 152.568 20.1068 152.96 20.5118C153.353 20.9168 153.661 21.3933 153.887 21.9412C154.114 22.4892 154.226 23.0848 154.226 23.7281C154.226 24.3952 154.114 25.0112 153.887 25.5694C153.661 26.1276 153.353 26.6109 152.96 27.0159C152.568 27.4209 152.101 27.7374 151.553 27.9621C151.005 28.1901 150.413 28.3024 149.77 28.3024C149.151 28.3024 148.569 28.1901 148.021 27.9621C147.473 27.7374 146.996 27.4141 146.593 26.9989C146.19 26.5836 145.876 26.1003 145.649 25.5524C145.422 25.0044 145.311 24.4088 145.311 23.7655C145.311 23.1223 145.422 22.5267 145.649 21.9787C145.876 21.4307 146.184 20.9508 146.576 20.5322C146.968 20.1136 147.435 19.7936 147.983 19.5656Z" fill="#FFAC2A"/>
</svg>