<svg xmlns="http://www.w3.org/2000/svg" width="136" height="47" viewBox="0 0 136 47" fill="none">
  <path d="M72.4617 10.5845V32.4427C72.4617 33.8352 72.4382 34.9956 72.3863 35.9192C72.3392 36.8475 72.2307 37.6432 72.0657 38.3016C71.9007 38.9647 71.6792 39.552 71.401 40.0682C71.1182 40.5797 70.7505 41.1007 70.2885 41.6312C68.9072 43.2179 67.2101 44.4304 65.1972 45.2593C63.1889 46.0881 60.9497 46.5002 58.4747 46.5002C56.7964 46.5002 55.2408 46.2918 53.8029 45.8797C52.3698 45.4629 51.1111 44.8756 50.0221 44.1178C48.9332 43.3552 48.0516 42.4364 47.3775 41.3612C46.7033 40.2861 46.2838 39.0878 46.1188 37.7616H54.6656C55.3586 39.3814 56.8059 40.1961 59.0168 40.1961C60.9261 40.1961 62.4016 39.6088 63.4388 38.4389C64.4759 37.269 64.9944 35.6255 64.9944 33.5179V32.7269C64.7304 33.2195 64.3533 33.6884 63.8583 34.1336C63.3633 34.5788 62.7882 34.9577 62.1282 35.2656C61.4682 35.5782 60.7517 35.8245 59.9785 36.0044C59.2054 36.1844 58.4228 36.2744 57.6309 36.2744C55.9526 36.2744 54.3781 35.9334 52.9119 35.2561C51.4458 34.5788 50.1777 33.641 49.1076 32.4522C48.0375 31.2586 47.1889 29.8709 46.5619 28.2842C45.9349 26.6975 45.6238 24.9925 45.6238 23.169C45.6238 21.2507 45.9443 19.4699 46.5855 17.8311C47.2266 16.1923 48.1082 14.7762 49.2301 13.5873C50.3474 12.3938 51.6768 11.4607 53.2089 10.7834C54.741 10.1062 56.4146 9.76514 58.2248 9.76514C61.3551 9.76514 63.7593 10.8024 65.4376 12.8722V10.5893H72.4617V10.5845ZM59.0215 16.666C58.1636 16.666 57.3716 16.827 56.6503 17.1396C55.9243 17.4569 55.2926 17.8974 54.7458 18.4658C54.2036 19.0341 53.7746 19.702 53.4588 20.4692C53.1476 21.2365 52.9874 22.0512 52.9874 22.9227C52.9874 24.7888 53.5484 26.3328 54.6656 27.5501C55.7829 28.7673 57.2207 29.3783 58.965 29.3783C60.7422 29.3783 62.1942 28.7957 63.3115 27.6259C64.4287 26.456 64.9897 24.9593 64.9897 23.1216C64.9897 21.2176 64.4382 19.6688 63.335 18.4658C62.2413 17.2675 60.8035 16.666 59.0215 16.666Z" fill="#FFAC2A"/>
  <path d="M42.7154 17.7597C42.0413 16.1399 41.1078 14.7332 39.9246 13.5396C38.7366 12.3461 37.3318 11.4225 35.7006 10.7594C34.0695 10.0963 32.297 9.76477 30.3877 9.76477C28.4455 9.76477 26.6588 10.1058 25.0277 10.7831C23.3966 11.4604 21.987 12.3982 20.8038 13.587C19.6158 14.7805 18.6965 16.192 18.0365 17.8308C17.3765 19.4695 17.0466 21.2504 17.0466 23.1686C17.0466 24.7458 17.287 26.2235 17.7584 27.6018C17.056 29.179 15.6182 29.97 13.4449 29.97C11.5357 29.97 10.0601 29.3827 9.02298 28.2128C7.98586 27.0429 7.4673 25.3994 7.4673 23.2917V0.358398H0V22.2166C0 23.6091 0.023571 24.7695 0.0754272 25.6931C0.122569 26.6214 0.230996 27.4171 0.395993 28.0755C0.56099 28.7385 0.782557 29.3258 1.0607 29.8421C1.34355 30.3536 1.71126 30.8746 2.17325 31.4051C3.55451 32.9918 5.25162 34.2043 7.26458 35.0331C9.27283 35.862 11.5121 36.2741 13.987 36.2741C15.6653 36.2741 17.221 36.0657 18.6588 35.6536C20.0919 35.2368 21.3506 34.6495 22.4396 33.8917C22.449 33.8869 22.4537 33.8775 22.4632 33.8727C23.2599 34.4269 24.132 34.8958 25.0796 35.2842C26.7107 35.9472 28.4973 36.2788 30.4396 36.2788C32.3489 36.2788 34.112 35.9472 35.7289 35.2842C37.3412 34.6211 38.7413 33.6975 39.9293 32.5039C41.1173 31.3104 42.046 29.9084 42.7201 28.2838C43.3942 26.664 43.7336 24.9068 43.7336 23.0218C43.7289 21.132 43.3895 19.3795 42.7154 17.7597ZM35.9175 25.5226C35.6158 26.2898 35.2009 26.9671 34.673 27.5497C34.1403 28.1323 33.5085 28.5822 32.7778 28.8996C32.0471 29.2169 31.2646 29.3732 30.4349 29.3732C29.5722 29.3732 28.7755 29.2169 28.0448 28.8996C27.3141 28.5822 26.673 28.1323 26.1261 27.5497C25.5793 26.9671 25.155 26.2804 24.858 25.4989C24.5563 24.7174 24.4101 23.8743 24.4101 22.9697C24.4101 22.1029 24.5657 21.2835 24.8816 20.5162C25.1974 19.749 25.6217 19.0811 26.1497 18.5128C26.6824 17.9444 27.3141 17.4945 28.0448 17.1629C28.7755 16.8314 29.5722 16.6609 30.4349 16.6609C31.2646 16.6609 32.0377 16.8266 32.7496 17.1629C33.4661 17.4945 34.0884 17.9492 34.6164 18.5128C35.1491 19.0811 35.5734 19.749 35.8892 20.5162C36.2051 21.2835 36.3606 22.1171 36.3606 23.017C36.3653 23.9217 36.2192 24.7553 35.9175 25.5226Z" fill="#FFAC2A"/>
  <path d="M37.648 3.53184V2.31934H30.2844V7.97452H31.6704L37.648 3.53184Z" fill="#FFAC2A"/>
  <path d="M83.7805 2.31934H76.4169V7.97923H83.7805V2.31934Z" fill="#FFAC2A"/>
  <path d="M83.7805 10.6079H76.4169V35.4311H83.7805V10.6079Z" fill="#FFAC2A"/>
  <path d="M87.783 35.4309V2.31445H95.1465V19.5926L102.114 10.6078H110.859L101.52 21.4824L110.614 35.4309H102.213L95.1465 23.4669V35.4309H87.783Z" fill="#FFAC2A"/>
  <path d="M136 10.6032V35.3979H129.094V32.7219C127.906 35.0521 125.355 36.2125 121.433 36.2125C119.557 36.2125 117.85 35.8905 116.318 35.2463C114.786 34.6022 113.466 33.7023 112.363 32.5466C111.26 31.3909 110.402 30.0032 109.794 28.3834C109.185 26.7635 108.879 24.9637 108.879 22.984C108.879 21.0373 109.19 19.2422 109.817 17.6082C110.444 15.9742 111.316 14.5675 112.438 13.3976C113.56 12.2277 114.894 11.3184 116.441 10.6742C117.987 10.0301 119.703 9.70801 121.579 9.70801C123.455 9.70801 125.006 9.98745 126.223 10.5511C127.444 11.1147 128.396 12.0051 129.089 13.2271V10.6032H136ZM122.39 16.6941C121.527 16.6941 120.716 16.8504 119.953 17.1677C119.189 17.4851 118.538 17.9303 117.992 18.5129C117.445 19.0954 117.016 19.7632 116.7 20.5258C116.384 21.2883 116.228 22.1172 116.228 23.0124C116.228 23.9075 116.384 24.7364 116.7 25.499C117.016 26.2615 117.454 26.9341 118.015 27.5119C118.576 28.0897 119.241 28.5397 120.005 28.8523C120.768 29.1696 121.579 29.3259 122.442 29.3259C123.337 29.3259 124.162 29.1696 124.926 28.8523C125.69 28.5397 126.34 28.0992 126.887 27.5356C127.434 26.9719 127.863 26.2994 128.179 25.5226C128.495 24.7459 128.65 23.8886 128.65 22.9603C128.65 22.0651 128.495 21.2362 128.179 20.4737C127.863 19.7111 127.434 19.0481 126.887 18.4844C126.34 17.9208 125.676 17.4803 124.898 17.1677C124.12 16.8551 123.286 16.6941 122.39 16.6941Z" fill="#FFAC2A"/>
</svg>