<svg xmlns="http://www.w3.org/2000/svg" width="136" height="124" viewBox="0 0 136 124" fill="none">
  <path d="M54.3877 41.1474C50.9039 44.6428 48.7495 49.4881 48.7495 54.8259C48.7495 60.159 50.9086 65.009 54.3877 68.5044C57.8621 71.9999 62.6847 74.1691 67.9929 74.1691H67.9976C73.3058 74.1691 78.1331 71.9999 81.6122 68.5044C82.3335 67.7798 82.3335 66.6099 81.6122 65.8853C80.8909 65.1606 79.7265 65.1606 79.0053 65.8853C76.1815 68.7176 72.3017 70.4653 67.9976 70.4653C63.6935 70.4653 59.8137 68.7176 56.9899 65.8853C54.1708 63.0482 52.4313 59.1549 52.4313 54.8306V54.8259C52.4313 50.5016 54.1708 46.6036 56.9899 43.7666C57.7112 43.0419 57.7112 41.872 56.9899 41.1474C56.2734 40.4274 55.1043 40.4274 54.3877 41.1474Z" fill="#FFAC2A"/>
  <path d="M55.7125 54.826C55.7125 58.2315 57.0891 61.329 59.3095 63.5551C61.5251 65.7859 64.6082 67.1689 67.993 67.1689H67.9977C71.3825 67.1689 74.4656 65.7859 76.6813 63.5598L76.686 63.5551C78.9064 61.3243 80.283 58.2267 80.283 54.826C80.283 53.803 79.458 52.9741 78.4397 52.9741C77.4214 52.9741 76.5964 53.803 76.5964 54.826C76.5964 57.2179 75.6347 59.3682 74.0791 60.9359C72.5187 62.5036 70.3784 63.4651 67.9977 63.4698C65.6171 63.4698 63.4815 62.5036 61.9164 60.9406C60.356 59.3682 59.3943 57.2226 59.3943 54.8308C59.3943 53.8077 58.5693 52.9789 57.5511 52.9789C56.5375 52.9741 55.7125 53.803 55.7125 54.826Z" fill="#FFAC2A"/>
  <path d="M67.9979 81.1645C69.0162 81.1645 69.8411 80.3357 69.8411 79.3126C69.8411 78.2896 69.0162 77.4607 67.9979 77.4607C61.7704 77.4607 56.1511 74.9315 52.0686 70.8299C47.9908 66.7282 45.4687 61.0825 45.4687 54.8258V54.821C45.4687 48.5643 47.9861 42.9186 52.0639 38.817C52.0639 38.817 52.0686 38.817 52.0686 38.8122C56.1511 34.7106 61.7704 32.1814 67.9979 32.1814C69.0162 32.1814 69.8411 31.3525 69.8411 30.3294C69.8411 29.3064 69.0162 28.4775 67.9979 28.4775C60.7663 28.4775 54.1994 31.4283 49.4617 36.193C44.7192 40.9625 41.7822 47.5602 41.7822 54.8258C41.7822 62.0913 44.7192 68.689 49.4617 73.449C54.1994 78.2138 60.7663 81.1645 67.9979 81.1645Z" fill="#FFAC2A"/>
  <path d="M91.4603 33.872C92.1816 33.1473 92.1816 31.9775 91.4603 31.2528C85.4592 25.2234 77.1528 21.4865 67.9978 21.4912H67.993C58.8381 21.4912 50.5316 25.2234 44.5352 31.2528C38.534 37.2822 34.8192 45.6276 34.8192 54.8255C34.8192 54.8303 34.8192 54.8303 34.8192 54.835C34.8192 64.033 38.5387 72.3737 44.5352 78.3983C45.2565 79.1229 46.4209 79.1229 47.1421 78.3983C47.8634 77.6736 47.8634 76.5037 47.1421 75.7791C41.8057 70.4128 38.5057 63.0194 38.5057 54.8303V54.8255C38.5057 46.6364 41.8009 39.243 47.1421 33.8767C47.1421 33.8767 47.1469 33.8767 47.1469 33.872C52.488 28.5057 59.8516 25.195 67.9978 25.1903C67.9978 25.1903 67.9978 25.1903 68.0025 25.1903C76.1533 25.1903 83.5169 28.5057 88.8581 33.872C89.5747 34.5967 90.7391 34.5967 91.4603 33.872Z" fill="#FFAC2A"/>
  <path d="M29.6992 56.6774C30.7174 56.6774 31.5424 55.8486 31.5424 54.8255C31.5424 44.7087 35.6202 35.5628 42.2154 28.9272C42.2154 28.9272 42.2201 28.9272 42.2201 28.9225C48.8247 22.2916 57.9231 18.1947 67.9973 18.1947C67.9973 18.1947 67.9973 18.1947 68.0021 18.1947C78.0763 18.1947 87.1794 22.2916 93.784 28.9225C100.384 35.5581 104.462 44.704 104.462 54.8255C104.462 55.8486 105.287 56.6774 106.305 56.6774C107.323 56.6774 108.148 55.8486 108.148 54.8255C108.148 43.6951 103.651 33.5972 96.391 26.308C89.1311 19.0141 79.0851 14.4956 68.0068 14.4956C68.0068 14.4956 68.0068 14.4956 68.0021 14.4956C56.9237 14.4956 46.8777 19.0141 39.6178 26.308C32.358 33.602 27.8606 43.6951 27.8606 54.8255C27.8559 55.8486 28.6809 56.6774 29.6992 56.6774Z" fill="#FFAC2A"/>
  <path d="M37.2938 23.9781C45.1571 16.0778 55.9997 11.2042 67.9927 11.1994C67.9927 11.1994 67.9927 11.1994 67.9974 11.1994C79.995 11.1994 90.8377 16.0778 98.701 23.9781C106.56 31.8783 111.42 42.7718 111.42 54.8258C111.42 66.8798 106.564 77.7733 98.701 85.6736C97.9797 86.3982 97.9797 87.5681 98.701 88.2927C99.4222 89.0174 100.587 89.0174 101.308 88.2927C109.826 79.7342 115.106 67.8934 115.106 54.8305C115.106 54.8305 115.106 54.8305 115.106 54.8258C115.106 41.763 109.831 29.9174 101.308 21.3589C92.7894 12.7956 80.9991 7.49561 67.9974 7.49561C67.9974 7.49561 67.9974 7.49561 67.9927 7.49561C54.9909 7.49561 43.2054 12.7956 34.6868 21.3589C33.9656 22.0835 33.9656 23.2534 34.6868 23.9781C35.4081 24.7027 36.5772 24.7027 37.2938 23.9781Z" fill="#FFAC2A"/>
  <path d="M67.998 4.20381C81.9191 4.20381 94.5013 9.86847 103.628 19.0333C112.75 28.1981 118.383 40.8441 118.388 54.8305C118.388 68.8169 112.75 81.4582 103.628 90.6277C94.506 99.7925 81.9191 105.452 67.998 105.457C66.9798 105.457 66.1548 106.286 66.1548 107.309C66.1548 108.332 66.9798 109.161 67.998 109.161C82.9232 109.161 96.4482 103.08 106.23 93.2517C106.23 93.2517 106.235 93.2517 106.235 93.2469C116.017 83.4238 122.07 69.8305 122.07 54.8352C122.07 54.8352 122.07 54.8352 122.07 54.8305C122.07 39.8353 116.017 26.242 106.235 16.4188C96.453 6.58619 82.9232 0.5 67.998 0.5C66.9798 0.5 66.1548 1.32886 66.1548 2.35191C66.1548 3.37496 66.9798 4.20381 67.998 4.20381Z" fill="#FFAC2A"/>
  <path d="M24.8395 98.1872C35.8755 109.28 51.1495 116.147 67.9933 116.147C67.9933 116.147 67.9933 116.147 67.998 116.147C84.8466 116.147 100.116 109.284 111.152 98.1919C111.152 98.1919 111.157 98.1919 111.157 98.1872C122.197 87.0947 129.033 71.7537 129.033 54.8308C129.033 54.8308 129.033 54.8308 129.033 54.826C129.033 37.8984 122.197 22.5574 111.157 11.4649C110.435 10.7402 109.271 10.7402 108.55 11.4649C107.828 12.1895 107.828 13.3594 108.55 14.0841C118.93 24.5182 125.346 38.9119 125.346 54.826C125.346 70.7449 118.93 85.1339 108.55 95.568C98.1642 105.997 83.8378 112.444 67.998 112.444C67.998 112.444 67.998 112.444 67.9933 112.444C52.1536 112.444 37.8271 105.997 27.4418 95.568C26.7205 94.8433 25.5561 94.8433 24.8348 95.568C24.123 96.2927 24.123 97.4625 24.8395 98.1872Z" fill="#FFAC2A"/>
  <path d="M136 54.826C136 53.803 135.175 52.9741 134.157 52.9741C133.138 52.9741 132.314 53.803 132.314 54.826C132.314 72.6773 125.12 88.8187 113.476 100.517C113.476 100.517 113.476 100.517 113.471 100.522C101.827 112.216 85.7608 119.444 67.9977 119.444C50.2345 119.444 34.1685 112.216 22.5245 100.522C10.8804 88.8234 3.68651 72.682 3.68651 54.8308C3.68651 53.8077 2.86152 52.9789 1.84325 52.9789C0.824985 52.9789 0 53.8077 0 54.8308C0 73.6909 7.61344 90.7796 19.9175 103.141C32.2169 115.499 49.2257 123.148 67.9929 123.148C67.9929 123.148 67.9929 123.148 67.9977 123.148C86.7696 123.148 103.778 115.499 116.078 103.141C116.078 103.141 116.083 103.141 116.083 103.137C128.387 90.7748 136 73.6861 136 54.826Z" fill="#FFAC2A"/>
</svg>