<svg xmlns="http://www.w3.org/2000/svg" width="122" height="122" viewBox="0 0 122 122" fill="none">
  <path d="M117.732 23.6129H108.226V15.742H116.097V3.93555H5.90342V15.742H13.7744V23.6129H4.26794C1.91463 23.6129 0 25.5275 0 27.8808V33.1189C0 35.4722 1.91463 37.3868 4.26794 37.3868H13.601L6.56625 53.8037C5.31656 56.7141 5.61376 60.0337 7.35545 62.6784C8.83518 64.9196 11.1688 66.3838 13.7744 66.783V104.29H6.23588C3.88258 104.29 1.96795 106.204 1.96795 108.558V113.796C1.96795 116.149 3.88258 118.064 6.23588 118.064H37.3872H84.6128H115.764C118.117 118.064 120.032 116.149 120.032 113.796V108.558C120.032 106.204 118.117 104.29 115.764 104.29H108.226V66.783C110.831 66.3855 113.165 64.9196 114.645 62.6784C116.388 60.0337 116.683 56.7162 115.434 53.8058L108.399 37.3868H117.732C120.085 37.3868 122 35.4722 122 33.1189V27.8808C122 25.5275 120.085 23.6129 117.732 23.6129ZM9.83889 7.87102H112.161V11.8065H9.83889V7.87102ZM26.0862 61.0844C25.0808 59.9275 24.6123 58.4062 24.7836 56.8891L27.2868 39.3548H37.2415L35.9171 57.8949C35.7127 60.7402 33.3216 62.9676 30.4683 62.9676H30.2106C28.6288 62.9676 27.1235 62.2808 26.0862 61.0844ZM10.6415 60.5119C9.6143 58.9515 9.44723 57.0722 10.1831 55.3544L17.0386 39.3548H23.3118L20.9073 56.1768C20.8977 56.2456 20.8897 56.3124 20.8796 56.3816L20.608 58.2786C20.2285 60.9526 17.9046 62.9676 15.2029 62.9676C13.3315 62.9676 11.6725 62.0722 10.6415 60.5119ZM17.7098 66.545C19.7072 65.9842 21.4644 64.784 22.7002 63.1527C22.8299 63.3278 22.9697 63.499 23.1133 63.6644C23.2648 63.8378 23.4516 63.9675 23.6132 64.1287V104.29H17.7098V66.545ZM5.90342 113.796V108.558C5.90342 108.375 6.05286 108.226 6.23588 108.226H23.6128V114.129H6.23588C6.05286 114.129 5.90342 113.979 5.90342 113.796ZM41.3227 82.645H59.0325V96.4193H55.097V100.355H59.0325V114.129H41.3227V82.645ZM62.9675 114.129V100.354H66.903V96.4189H62.9675V82.6445H70.8385V78.7095H41.3227V72.8061H80.6774V78.7095H76.7419V82.645H80.6774V114.129H62.9675ZM37.3872 68.871V114.129H27.5483V66.4682C28.408 66.7238 29.2938 66.9031 30.2127 66.9031H30.4704C33.4752 66.9031 36.1828 65.4666 37.9123 63.2274C38.0933 63.4634 38.2843 63.69 38.4887 63.9104C40.2598 65.8112 42.7646 66.9035 45.366 66.9035H45.7006C48.7192 66.9035 51.4088 65.4729 53.1286 63.2551C54.8485 65.4729 57.5385 66.9035 60.5567 66.9035H61.4404C64.459 66.9035 67.1486 65.4729 68.8684 63.2551C70.5904 65.4729 73.2799 66.9035 76.2986 66.9035H76.6332C79.2325 66.9035 81.7394 65.8112 83.5105 63.9104C83.7153 63.6921 83.9059 63.4638 84.0868 63.2274C85.8163 65.4666 88.5239 66.9031 91.5309 66.9031H91.7886C92.7054 66.9031 93.5911 66.7238 94.453 66.4682V114.129H84.6141V68.871H37.3872ZM39.9176 57.1158L41.1866 39.3552H51.1611V57.5075C51.1611 60.5182 48.7113 62.968 45.7006 62.968H45.366C43.833 62.968 42.4145 62.3522 41.3697 61.2284C40.3248 60.1068 39.8072 58.6463 39.9176 57.1158ZM55.0966 57.5071V39.3548H66.903V57.5071C66.903 60.5177 64.4531 62.9676 61.4425 62.9676H60.5588C57.5464 62.9676 55.0966 60.5177 55.0966 57.5071ZM70.8385 57.5071V39.3548H80.8129L82.0819 57.1154C82.1919 58.6442 81.6748 60.1063 80.6316 61.228C79.5847 62.3518 78.1679 62.9676 76.6332 62.9676H76.2986C73.2883 62.9676 70.8385 60.5177 70.8385 57.5071ZM95.9134 61.0844C94.8765 62.2808 93.3712 62.9676 91.7869 62.9676H91.5292C88.678 62.9676 86.2852 60.7402 86.0804 57.8949L84.7581 39.3548H94.7128L97.208 56.8085C97.4049 58.3533 96.9368 59.9057 95.9134 61.0844ZM116.097 108.558V113.796C116.097 113.979 115.947 114.129 115.764 114.129H98.3872V108.225H115.764C115.947 108.226 116.097 108.375 116.097 108.558ZM98.3868 104.29V64.1287C98.548 63.9675 98.7352 63.8374 98.8867 63.6644C99.0303 63.499 99.1701 63.3278 99.2998 63.1527C100.536 64.784 102.293 65.9842 104.29 66.545V104.29H98.3868ZM111.358 60.5119C110.327 62.0722 108.668 62.9676 106.797 62.9676C104.097 62.9676 101.771 60.9526 101.391 58.2786L101.106 56.2775C101.102 56.2439 101.096 56.2108 101.092 56.1772L98.6873 39.3552H104.961L111.816 55.3569C112.553 57.0722 112.385 58.9515 111.358 60.5119ZM118.064 33.1193C118.064 33.3023 117.915 33.4518 117.732 33.4518H96.4192V35.4197H25.5808V33.4518H4.26836C4.08533 33.4518 3.93589 33.3023 3.93589 33.1193V27.8808C3.93589 27.6978 4.08533 27.5484 4.26836 27.5484H25.5808V23.6129H17.7098V15.742H104.29V23.6129H96.4192V27.5484H117.732C117.915 27.5484 118.064 27.6978 118.064 27.8808V33.1193Z" fill="white"/>
  <path d="M98.3867 39.3549H23.6128V11.8066H98.3867V39.3549Z" fill="#FFAC2A"/>
  <path d="M38.3709 17.7104H36.403C33.6899 17.7104 31.4839 19.916 31.4839 22.6295C31.4839 25.343 33.6899 27.5489 36.4034 27.5489H38.3713C38.9124 27.5489 39.3553 27.9918 39.3553 28.5329C39.3553 29.074 38.9124 29.5169 38.3713 29.5169H36.4034C35.8623 29.5169 35.4194 29.074 35.4194 28.5329V27.5489H31.4839V28.5329C31.4839 31.2464 33.6899 33.4523 36.4034 33.4523H38.3713C41.0848 33.4523 43.2908 31.2464 43.2908 28.5329C43.2908 25.8194 41.0844 23.6134 38.3709 23.6134H36.403C35.8619 23.6134 35.419 23.1706 35.419 22.6295C35.419 22.0884 35.8619 21.6455 36.403 21.6455H38.3709C38.912 21.6455 39.3549 22.0884 39.3549 22.6295V23.6134H43.2904V22.6295C43.2904 19.916 41.0844 17.7104 38.3709 17.7104Z" fill="white"/>
  <path d="M55.0965 23.6134H51.1611V17.7104H47.2256V33.4523H51.1611V27.5489H55.0965V33.4523H59.032V17.7104H55.0965V23.6134Z" fill="white"/>
  <path d="M68.8709 17.7104C65.6164 17.7104 62.9675 20.3589 62.9675 23.6134V27.5489C62.9675 30.8035 65.6159 33.4523 68.8709 33.4523C72.1255 33.4523 74.7744 30.8039 74.7744 27.5489V23.6134C74.7739 20.3589 72.1255 17.7104 68.8709 17.7104ZM70.8385 27.5489C70.8385 28.6353 69.9569 29.5169 68.8705 29.5169C67.7845 29.5169 66.9026 28.6353 66.9026 27.5489V23.6134C66.9026 22.5275 67.7841 21.6455 68.8705 21.6455C69.9569 21.6455 70.8385 22.527 70.8385 23.6134V27.5489Z" fill="white"/>
  <path d="M85.5969 17.7104H78.7095V25.5814V27.5493V33.4528H82.645V27.5489H85.5965C88.31 27.5489 90.5159 25.343 90.5159 22.6295C90.5159 19.916 88.3104 17.7104 85.5969 17.7104ZM85.5969 23.6134H82.6454V21.6455H85.5969C86.138 21.6455 86.5809 22.0884 86.5809 22.6295C86.5805 23.171 86.138 23.6134 85.5969 23.6134Z" fill="white"/>
</svg>