<svg xmlns="http://www.w3.org/2000/svg" width="122" height="112" viewBox="0 0 122 112" fill="none">
  <path d="M96.9614 62.3841L97.2188 63.0001L91.5 68.2501L84.4717 61.7979C74.3075 63.9346 66.7188 72.2716 66.7188 82.2501C66.7188 93.8474 76.961 103.25 89.5938 103.25C102.226 103.25 112.469 93.8474 112.469 82.2501C112.469 73.0206 105.974 65.2016 96.9614 62.3841Z" fill="#FBAB2D"/>
  <path d="M9.53125 36.75H47.6562V61.25H9.53125V36.75Z" fill="#FBAB2D"/>
  <path d="M99.125 28C103.33 28 106.75 24.8605 106.75 21C106.75 17.1395 103.33 14 99.125 14C94.9198 14 91.5 17.1395 91.5 21C91.5 24.8605 94.9198 28 99.125 28ZM99.125 17.5C101.228 17.5 102.938 19.0697 102.938 21C102.938 22.9303 101.228 24.5 99.125 24.5C97.0224 24.5 95.3125 22.9303 95.3125 21C95.3125 19.0697 97.0224 17.5 99.125 17.5Z" fill="white"/>
  <path d="M95.8558 54.8678L92.0299 45.7363L104.607 34.1898C112.124 27.2913 117.459 18.6392 120.037 9.17175L120.094 8.75C120.094 4.8895 116.674 1.75 112.469 1.75L112.007 1.8025C103.793 3.68725 96.1646 7.1995 89.5938 12.0278V1.75H22.0858L1.90625 20.2755V110.25H89.5938C106.411 110.25 120.094 97.6885 120.094 82.25C120.094 68.9062 109.96 57.5645 95.8558 54.8678ZM66.5167 94.5C64.5361 91.3692 63.297 87.8063 63.0016 84H76.2881C76.3892 87.787 76.8162 91.322 77.5177 94.5H66.5167ZM78.4308 98C79.4029 101.11 80.6706 103.742 82.1594 105.763C77.0316 104.395 72.5347 101.658 69.1816 98H78.4308ZM8.41419 19.25L20.9688 7.7245V19.25H8.41419ZM13.3438 22.75H24.7812V12.25H78.1562V22.0255L72.1782 27.5135L52.9023 20.7078L44.9608 28L46.8671 29.75H13.3438V22.75ZM50.3517 28L53.8477 24.7922L69.2274 30.2225L61 37.7755L50.3517 28ZM63.4286 44.954L73.0322 53.7705L69.0005 55.6203L61.4137 48.6553L63.4286 44.954ZM69.4142 45.5L80.2264 35.574C80.6248 35.2082 81.1758 35 81.7381 35C82.9162 35 83.875 35.8802 83.875 36.9618C83.875 37.478 83.6482 37.9837 83.2497 38.3495L72.4375 48.2755L69.4142 45.5ZM79.4029 59.619L80.8117 60.9122C79.9138 62.5467 79.1246 64.414 78.4746 66.5H69.1816C71.8904 63.5337 75.3712 61.1503 79.4029 59.619ZM97.7315 70C98.5074 73.2305 98.963 76.797 99.0716 80.5H80.1082C80.2188 76.7637 80.6725 73.1885 81.435 70H97.7315ZM82.4587 66.5C82.8247 65.443 83.2173 64.435 83.6558 63.5233L86.8983 66.5H82.4587ZM66.5091 70H77.5501C76.8276 73.248 76.4025 76.811 76.2977 80.5H62.9806C63.2761 76.741 64.5151 73.164 66.5091 70ZM80.1006 84H99.0869C98.9744 87.8903 98.5055 91.434 97.7773 94.5H81.4083C80.6801 91.434 80.2131 87.8903 80.1006 84ZM102.897 84H116.184C115.889 87.8063 114.649 91.3692 112.669 94.5H101.666C102.369 91.322 102.796 87.787 102.897 84ZM102.884 80.5C102.779 76.8285 102.356 73.2725 101.628 70H112.726C114.693 73.1395 115.906 76.7095 116.195 80.5H102.884ZM110.069 66.5H96.1036L99.4433 63.434L97.5314 58.8717C102.526 60.2892 106.845 62.965 110.069 66.5ZM94.9942 62.566L91.5 65.7755L80.8517 56L89.0791 48.447L94.9942 62.566ZM112.682 5.25525C114.615 5.355 116.167 6.7795 116.276 8.554C113.843 17.3162 108.877 25.3208 101.912 31.717L78.1562 53.5255L75.1329 50.75L85.9452 40.824C87.0527 39.8072 87.6875 38.4002 87.6875 36.9618C87.6875 33.95 85.0188 31.5 81.7381 31.5C80.1712 31.5 78.6385 32.0827 77.531 33.0995L66.7188 43.0255L63.6954 40.25L87.4511 18.4415C94.4185 12.047 103.138 7.48825 112.682 5.25525ZM85.7812 15.0868C85.4419 15.3825 85.0874 15.6625 84.7557 15.967L81.9688 18.5255V8.75H24.7812V5.25H85.7812V15.0868ZM5.71875 106.75V22.75H9.53125V33.25H50.6796L58.3046 40.25L59.6523 41.4873L60.5863 42.3447L56.7738 49.3447L68.2495 59.8797L75.8745 56.3797L76.5131 56.966C65.9906 61.5632 59.0938 71.4035 59.0938 82.25C59.0938 92.785 65.4702 101.971 74.8603 106.75H5.71875ZM82.4148 98H96.7708C94.8931 103.478 92.1615 106.75 89.5918 106.75C87.0222 106.75 84.2944 103.478 82.4148 98ZM97.0262 105.763C98.515 103.74 99.7827 101.11 100.755 98H110.006C106.653 101.658 102.156 104.395 97.0262 105.763Z" fill="white"/>
  <path d="M83.875 73.5H87.6875V77H83.875V73.5Z" fill="white"/>
  <path d="M91.5 73.5H95.3125V77H91.5V73.5Z" fill="white"/>
  <path d="M83.875 87.5H87.6875V91H83.875V87.5Z" fill="white"/>
  <path d="M91.5 87.5H95.3125V91H91.5V87.5Z" fill="white"/>
  <path d="M55.2812 64.75H43.8438V99.75H40.0312V71.75H28.5938V99.75H24.7812V78.75H13.3438V99.75H9.53125V103.25H59.0938V99.75H55.2812V64.75ZM47.6562 68.25H51.4688V99.75H47.6562V68.25ZM32.4062 75.25H36.2188V99.75H32.4062V75.25ZM17.1562 82.25H20.9688V99.75H17.1562V82.25Z" fill="white"/>
  <path d="M9.53125 36.75H13.3438V40.25H9.53125V36.75Z" fill="white"/>
  <path d="M17.1562 36.75H47.6562V40.25H17.1562V36.75Z" fill="white"/>
  <path d="M9.53125 43.75H47.6562V47.25H9.53125V43.75Z" fill="white"/>
  <path d="M9.53125 50.75H47.6562V54.25H9.53125V50.75Z" fill="white"/>
  <path d="M9.53125 57.75H32.4062V61.25H9.53125V57.75Z" fill="white"/>
  <path d="M43.8438 57.75H47.6562V61.25H43.8438V57.75Z" fill="white"/>
  <path d="M36.2188 57.75H40.0312V61.25H36.2188V57.75Z" fill="white"/>
</svg>