<svg xmlns="http://www.w3.org/2000/svg" width="16" height="16" viewBox="0 0 16 16" fill="none">
  <path d="M7.99996 3.98337C10.5266 3.98337 12.78 5.40337 13.88 7.65003C13.4866 8.46337 12.9333 9.16337 12.2733 9.73003L13.2133 10.67C14.14 9.85003 14.8733 8.82337 15.3333 7.65003C14.18 4.72337 11.3333 2.65003 7.99996 2.65003C7.15329 2.65003 6.33996 2.78337 5.57329 3.03003L6.67329 4.13003C7.10663 4.04337 7.54663 3.98337 7.99996 3.98337ZM7.28663 4.74337L8.66663 6.12337C9.04663 6.29003 9.35329 6.5967 9.51996 6.9767L10.9 8.3567C10.9533 8.13003 10.9933 7.89003 10.9933 7.64337C11 5.99003 9.65329 4.65003 7.99996 4.65003C7.75329 4.65003 7.51996 4.68337 7.28663 4.74337ZM1.33996 2.56337L3.12663 4.35003C2.03996 5.20337 1.17996 6.3367 0.666626 7.65003C1.81996 10.5767 4.66663 12.65 7.99996 12.65C9.01329 12.65 9.98663 12.4567 10.88 12.1034L13.16 14.3834L14.1 13.4434L2.27996 1.6167L1.33996 2.56337ZM6.33996 7.56337L8.07996 9.30337C8.05329 9.31003 8.02663 9.3167 7.99996 9.3167C7.07996 9.3167 6.33329 8.57003 6.33329 7.65003C6.33329 7.6167 6.33996 7.5967 6.33996 7.56337ZM4.07329 5.2967L5.23996 6.46337C5.08663 6.83003 4.99996 7.23003 4.99996 7.65003C4.99996 9.30337 6.34663 10.65 7.99996 10.65C8.41996 10.65 8.81996 10.5634 9.17996 10.41L9.83329 11.0634C9.24663 11.2234 8.63329 11.3167 7.99996 11.3167C5.47329 11.3167 3.21996 9.8967 2.11996 7.65003C2.58663 6.6967 3.26663 5.91003 4.07329 5.2967Z" fill="white"/>
</svg>